<svg xmlns="http://www.w3.org/2000/svg" viewBox="0 0 66.48 66.39"><g id="Layer_2" data-name="Layer 2"><g id="Layer_1-2" data-name="Layer 1"><path d="M66.48,37.07c-.48,2-.85,4.11-1.46,6.12a33.27,33.27,0,0,1-27.92,23c-18,1.88-34-10.15-36.69-27.91A33,33,0,0,1,27.83.45c.82-.14,1.63-.3,2.45-.45h6a6.14,6.14,0,0,0,.92.22A33.21,33.21,0,0,1,65.26,24c.51,1.79.82,3.63,1.22,5.45ZM32.86,27.73A20.82,20.82,0,0,1,18.1,20.32c-1.91,2.83-1.3,5.76,2,9.62L17,29.15c.29,3.57,2.17,5.77,5.31,7.17h-2.7c1.19,3.12,3.43,4.57,6.63,5.06a15.48,15.48,0,0,1-10.17,3.07c3.6,2.6,9.61,3.7,14.46,2.78A20.46,20.46,0,0,0,47.35,27a2,2,0,0,1,.8-1.71c.92-.8,1.73-1.74,2.59-2.61l-.2-.18-3.15.78L50,19.87a12,12,0,0,0-3.13.91,2.14,2.14,0,0,1-2.37-.43A6.78,6.78,0,0,0,37,19.58a7,7,0,0,0-4.09,6.52C32.85,26.61,32.86,27.11,32.86,27.73Z"/></g></g></svg>