<svg xmlns="http://www.w3.org/2000/svg" viewBox="0 0 66.61 66.38"><g id="Layer_2" data-name="Layer 2"><g id="Layer_1-2" data-name="Layer 1"><path d="M36.24,0c2,.41,4.08.69,6.07,1.24A33.22,33.22,0,1,1,28.6.29L30.48,0ZM51.71,33.28h-.35c0-2.83.11-5.66,0-8.48-.26-5.28-3.73-9.16-9-9.47a150.24,150.24,0,0,0-17.24-.11c-6,.33-9.36,3.44-9.77,9.3a122,122,0,0,0,0,17.42c.39,5.52,4,9,9.11,9.18,5.86.24,11.74.23,17.6,0a9.22,9.22,0,0,0,9-8.2C51.56,39.75,51.52,36.5,51.71,33.28Z"/><path d="M18.49,33.15c0-2.71-.1-5.42,0-8.12.17-3.92,2.59-6.45,6.52-6.56,5.5-.15,11-.14,16.52,0,3.72.09,6.22,2.32,6.39,6,.26,5.64.33,11.31.06,16.95-.2,4.22-2.21,6.28-6.4,6.47-5.74.27-11.5.19-17.24-.1-3.55-.17-5.67-2.67-5.84-6.27-.13-2.78,0-5.57,0-8.36Zm14.79-9.29a9.35,9.35,0,1,0,.07,18.69,9.35,9.35,0,1,0-.07-18.69ZM43,21.3a2.27,2.27,0,0,0-2.18,2.13A2.23,2.23,0,0,0,43,25.64a2.14,2.14,0,0,0,2.14-2.11A2.17,2.17,0,0,0,43,21.3Z"/><path d="M33.24,39.24a6,6,0,0,1-6.05-6.09,6.09,6.09,0,1,1,12.18.08A6,6,0,0,1,33.24,39.24Z"/></g></g></svg>